HIERARCHY
ROOT Hips
{
	OFFSET -0.001795 -0.223333 0.028219
	CHANNELS 6 Xposition Yposition Zposition Zrotation Yrotation Xrotation 
	JOINT LeftUpLeg
	{
		OFFSET 0.069520 -0.091406 -0.006815
		CHANNELS 3 Zrotation Yrotation Xrotation
		JOINT LeftLeg
		{
			OFFSET 0.034277 -0.375199 -0.004496
			CHANNELS 3 Zrotation Yrotation Xrotation
			JOINT LeftFoot
			{
				OFFSET -0.013596 -0.397961 -0.043693
				CHANNELS 3 Zrotation Yrotation Xrotation
				JOINT LeftToe
				{
					OFFSET 0.026358 -0.055791 0.119288
					CHANNELS 3 Zrotation Yrotation Xrotation
					End Site
					{
						OFFSET 0.000000 0.000000 0.000000
					}
				}
			}
		}
	}
	JOINT RightUpLeg
	{
		OFFSET -0.067670 -0.090522 -0.004320
		CHANNELS 3 Zrotation Yrotation Xrotation
		JOINT RightLeg
		{
			OFFSET -0.038290 -0.382569 -0.008850
			CHANNELS 3 Zrotation Yrotation Xrotation
			JOINT RightFoot
			{
				OFFSET 0.015774 -0.398415 -0.042312
				CHANNELS 3 Zrotation Yrotation Xrotation
				JOINT RightToe
				{
					OFFSET -0.025372 -0.048144 0.123348
					CHANNELS 3 Zrotation Yrotation Xrotation
					End Site
					{
						OFFSET 0.000000 0.000000 0.000000
					}
				}
			}
		}
	}
	JOINT Spine
	{
		OFFSET -0.002533 0.108963 -0.026696
		CHANNELS 3 Zrotation Yrotation Xrotation
		JOINT Spine1
		{
			OFFSET 0.005487 0.135180 0.001092
			CHANNELS 3 Zrotation Yrotation Xrotation
			JOINT Spine2
			{
				OFFSET 0.001457 0.052922 0.025425
				CHANNELS 3 Zrotation Yrotation Xrotation
				JOINT Neck
				{
					OFFSET -0.002778 0.213870 -0.042857
					CHANNELS 3 Zrotation Yrotation Xrotation
					JOINT Head
					{
						OFFSET 0.005152 0.064970 0.051349
						CHANNELS 3 Zrotation Yrotation Xrotation
						End Site
						{
							OFFSET 0.000000 0.000000 0.000000
						}
					}
				}
				JOINT LeftShoulder
				{
					OFFSET 0.078845 0.121749 -0.034090
					CHANNELS 3 Zrotation Yrotation Xrotation
					JOINT LeftArm
					{
						OFFSET 0.090977 0.030469 -0.008868
						CHANNELS 3 Zrotation Yrotation Xrotation
						JOINT LeftForeArm
						{
							OFFSET 0.259612 -0.012772 -0.027456
							CHANNELS 3 Zrotation Yrotation Xrotation
							JOINT LeftHand
							{
								OFFSET 0.249234 0.008986 -0.001171
								CHANNELS 3 Zrotation Yrotation Xrotation
								End Site
								{
									OFFSET 0.000000 0.000000 0.000000
								}
							}
						}
					}
				}
				JOINT RightShoulder
				{
					OFFSET -0.081759 0.118833 -0.038615
					CHANNELS 3 Zrotation Yrotation Xrotation
					JOINT RightArm
					{
						OFFSET -0.096012 0.032551 -0.009143
						CHANNELS 3 Zrotation Yrotation Xrotation
						JOINT RightForeArm
						{
							OFFSET -0.253742 -0.013329 -0.021401
							CHANNELS 3 Zrotation Yrotation Xrotation
							JOINT RightHand
							{
								OFFSET -0.255298 0.007772 -0.005559
								CHANNELS 3 Zrotation Yrotation Xrotation
								End Site
								{
									OFFSET 0.000000 0.000000 0.000000
								}
							}
						}
					}
				}
			}
		}
	}
}
MOTION
Frames: 13
Frame Time: 0.050000
0.000000 0.937157 0.000000 -1.614037 -4.445375 3.611579 -2.488082 0.123942 0.749638 1.768084 -0.168538 -0.739771 -1.120935 -2.964019 -1.125408 0.000000 0.000000 0.000000 -2.163014 0.502298 -5.167840 -0.405312 0.504588 9.486706 -1.378595 -2.511510 -1.868446 0.000000 0.000000 0.000000 3.289372 -0.059422 -0.112807 -2.057984 0.982429 0.006951 -1.857244 6.743186 5.170915 7.223969 -2.878633 -15.284987 0.000000 0.000000 0.000000 -19.233513 -2.640241 -1.691896 -33.513865 -3.563634 -2.644143 0.902745 -20.861691 0.446448 0.000000 0.000000 0.000000 16.655479 0.265385 -0.326780 42.018364 5.792352 -2.484694 -3.717289 22.119328 0.287129 0.000000 0.000000 0.000000 
0.001295 0.936215 0.004336 -1.770288 -4.912071 3.692317 -1.746177 0.242078 1.972429 0.541308 0.018198 -2.147091 -0.874266 -2.577839 -1.483253 0.000000 0.000000 0.000000 -1.584442 0.782276 -8.268291 -0.546183 0.880698 15.269778 -2.027293 -3.680161 -2.903868 0.000000 0.000000 0.000000 3.665842 -0.128619 0.720398 -2.327682 1.108747 -0.164965 -2.792220 7.520028 4.891049 8.222748 -3.080515 -17.168213 0.000000 0.000000 0.000000 -18.841120 -2.350106 -1.987146 -34.103913 -4.443490 -2.405042 2.684530 -20.799938 0.086563 0.000000 0.000000 0.000000 17.005635 -0.913904 -0.803360 44.108748 6.111536 -2.481270 -5.511779 22.197906 0.033784 0.000000 0.000000 0.000000 
0.002295 0.933902 0.008932 -1.715814 -6.032580 2.995501 -1.872674 0.383938 3.205301 0.549258 -0.018822 -1.248211 -0.935853 -3.495623 -3.154225 0.000000 0.000000 0.000000 -2.227122 1.156050 -12.654226 1.195593 1.039356 24.600534 -2.461874 -4.725762 -3.115716 0.000000 0.000000 0.000000 4.072375 -0.230336 2.066737 -2.318204 1.076082 -1.997424 -3.178920 7.444039 6.683881 8.654963 -3.532273 -16.804300 0.000000 0.000000 0.000000 -18.022222 -2.771326 -1.414495 -35.394566 -5.060838 -2.548823 2.379614 -20.259787 0.176804 0.000000 0.000000 0.000000 18.484109 0.127976 -0.388014 42.958857 6.197350 -2.583873 -4.284249 24.135347 0.240445 0.000000 0.000000 0.000000 
0.002620 0.931865 0.014300 -1.878312 -6.165654 2.419976 -0.936664 0.489913 4.531182 -0.632042 0.098452 -0.823345 -0.910631 -3.954315 -4.186200 0.000000 0.000000 0.000000 -2.550563 1.420265 -15.785222 2.347570 1.091725 31.852488 -2.781722 -5.944122 -2.460259 0.000000 0.000000 0.000000 3.622782 -0.280501 3.098696 -2.085773 0.973644 -1.760495 -2.607292 6.357162 7.236375 8.380816 -3.020220 -19.675752 0.000000 0.000000 0.000000 -19.930585 -2.547121 -1.440856 -34.474485 -6.590584 -2.204034 3.777149 -19.337914 -0.010181 0.000000 0.000000 0.000000 18.798729 0.171082 -0.679527 43.333756 6.783225 -2.357336 -4.198094 25.891720 0.223509 0.000000 0.000000 0.000000 
0.002025 0.931928 0.021208 -2.058725 -6.898427 1.874735 -1.329509 0.602438 5.334654 -0.626563 0.075203 0.078485 -0.277010 -2.755695 -4.958119 0.000000 0.000000 0.000000 -2.612372 1.852200 -20.114972 4.049169 0.830437 38.056135 -2.771107 -6.294846 -1.700609 0.000000 0.000000 0.000000 3.521582 -0.345361 4.227250 -1.285912 0.600718 -2.106213 -3.157015 5.731049 7.411520 9.274401 -3.606134 -19.945683 0.000000 0.000000 0.000000 -20.118888 -3.188429 -0.858065 -34.192246 -7.428702 -2.066956 3.138705 -19.196003 0.129130 0.000000 0.000000 0.000000 19.565372 -0.430645 -1.288349 42.788976 6.422108 -2.414240 -2.289448 28.529859 0.637714 0.000000 0.000000 0.000000 
0.000386 0.932418 0.030987 -2.419681 -7.487666 1.645254 -1.310517 0.737109 6.476017 -0.305282 0.035632 0.094321 0.135046 -1.772676 -5.105304 0.000000 0.000000 0.000000 -2.676442 2.267336 -23.918007 5.219715 0.429815 39.176540 -3.291333 -8.033262 -0.829137 0.000000 0.000000 0.000000 3.813845 -0.401911 4.911085 -0.854302 0.400668 -2.213808 -3.027654 4.440578 8.338304 8.458609 -3.032319 -21.946935 0.000000 0.000000 0.000000 -20.352345 -3.598345 -0.152335 -35.114832 -9.389131 -1.822825 3.256832 -19.370210 0.173973 0.000000 0.000000 0.000000 18.234883 -0.137572 -1.425398 44.571552 6.522102 -2.383017 -1.398361 30.870844 0.821109 0.000000 0.000000 0.000000 
-0.002585 0.932758 0.043897 -2.524768 -8.121202 1.376450 -1.370529 0.915360 7.884494 0.013547 0.005124 -0.199567 0.302355 -1.092845 -4.581751 0.000000 0.000000 0.000000 -2.286652 2.520698 -25.267346 4.646235 0.540345 34.574373 -3.304184 -8.404891 0.012821 0.000000 0.000000 0.000000 4.127687 -0.453635 5.500167 -0.625718 0.291888 -2.460506 -3.239825 3.957285 8.814364 8.615441 -3.093738 -22.856560 0.000000 0.000000 0.000000 -21.396868 -4.161629 0.349309 -35.457255 -10.711074 -1.599139 2.973252 -20.595260 0.267370 0.000000 0.000000 0.000000 18.452206 -0.141801 -1.632839 45.648699 6.207149 -2.534506 -0.480580 32.085308 1.048634 0.000000 0.000000 0.000000 
-0.006958 0.931904 0.059977 -2.683072 -8.247376 0.879982 -1.323647 1.157135 9.855509 0.602256 -0.051519 -0.621524 0.688923 -0.468651 -5.379028 0.000000 0.000000 0.000000 -2.138432 2.673377 -26.258525 3.998306 0.467139 28.256749 -2.903863 -8.045896 1.530794 0.000000 0.000000 0.000000 4.176815 -0.486544 6.044827 0.174184 -0.069609 -2.733502 -3.528997 3.993072 9.460907 8.905941 -3.153628 -23.649491 0.000000 0.000000 0.000000 -22.192400 -5.111924 0.876739 -36.398342 -11.733522 -1.400499 1.084986 -22.158063 0.653157 0.000000 0.000000 0.000000 18.663398 -0.064997 -1.590389 46.586228 6.282356 -2.618119 0.778849 32.811059 1.437847 0.000000 0.000000 0.000000 
-0.012696 0.929148 0.078960 -2.609527 -7.969478 1.231116 -1.566470 1.337634 11.101168 0.902769 -0.062902 -1.201545 0.909390 -0.074565 -5.703334 0.000000 0.000000 0.000000 -2.368207 2.616412 -26.266632 3.426699 0.226717 19.717400 -2.276848 -6.910943 2.356864 0.000000 0.000000 0.000000 4.413488 -0.499667 5.942794 -0.016091 0.018883 -2.774626 -3.336199 3.530708 9.323847 8.474253 -2.815323 -24.560040 0.000000 0.000000 0.000000 -22.323842 -5.517516 1.212411 -38.151354 -13.213186 -1.017617 0.084552 -23.789619 0.931815 0.000000 0.000000 0.000000 18.789289 -0.207216 -1.772421 48.566119 5.644155 -2.914395 1.527472 32.183399 1.586174 0.000000 0.000000 0.000000 
-0.019939 0.924531 0.100522 -2.543476 -7.464575 1.597189 -1.935053 1.547305 12.433334 1.520180 -0.097380 -1.894038 1.021677 -0.240494 -6.675408 0.000000 0.000000 0.000000 -2.727366 2.583811 -26.794436 2.938993 0.061881 12.903086 -2.046792 -6.483374 2.621290 0.000000 0.000000 0.000000 5.229894 -0.567092 6.075296 0.037963 0.003690 -3.378150 -3.817786 3.014855 9.524646 8.553060 -2.806934 -25.087506 0.000000 0.000000 0.000000 -22.048428 -6.691291 1.979377 -39.931779 -14.369803 -0.693648 -1.830217 -25.277270 1.432561 0.000000 0.000000 0.000000 19.900497 -0.156479 -1.913154 49.604721 5.585091 -2.987703 1.971338 31.157387 1.635008 0.000000 0.000000 0.000000 
-0.028974 0.918519 0.125172 -2.524756 -7.454866 1.841720 -1.572998 1.687738 13.799847 1.452026 -0.086828 -1.960149 1.286816 0.201828 -7.251199 0.000000 0.000000 0.000000 -2.675011 2.663232 -27.369113 2.140228 0.067586 8.866607 -2.025292 -6.732623 3.283226 0.000000 0.000000 0.000000 5.754926 -0.615332 6.214270 0.395001 -0.158312 -2.938614 -4.581936 3.059055 8.766678 9.058229 -2.953685 -25.475650 0.000000 0.000000 0.000000 -22.123105 -8.218092 2.757407 -41.503332 -15.598546 -0.184621 -2.677546 -25.795987 1.639653 0.000000 0.000000 0.000000 21.235224 -0.165747 -2.017288 50.318697 5.280557 -3.095374 1.558427 30.436534 1.499078 0.000000 0.000000 0.000000 
-0.040389 0.911754 0.153837 -2.384958 -6.882773 2.007125 -1.295853 1.822969 15.217177 1.800098 -0.150254 -1.355805 1.384921 0.190259 -7.711963 0.000000 0.000000 0.000000 -1.710410 2.905602 -28.013035 1.552392 0.178550 9.343253 -2.197742 -7.152470 3.384658 0.000000 0.000000 0.000000 6.314196 -0.659800 6.252736 0.340548 -0.132878 -2.620173 -4.843920 2.274868 8.422181 9.261087 -3.060856 -25.656908 0.000000 0.000000 0.000000 -21.914588 -9.395565 3.559489 -43.595186 -16.977070 0.355042 -3.294756 -27.170615 1.906887 0.000000 0.000000 0.000000 22.027564 0.364894 -1.938204 51.080407 4.958345 -3.192797 1.029916 29.655336 1.290939 0.000000 0.000000 0.000000 
-0.054494 0.905776 0.187953 -2.538520 -6.682487 2.415266 -0.955254 1.963869 16.723778 2.593212 -0.281179 -0.489030 1.105682 -0.553664 -7.671341 0.000000 0.000000 0.000000 -1.010419 3.152057 -28.856783 1.987984 0.197216 11.888795 -2.172438 -7.741051 5.013598 0.000000 0.000000 0.000000 6.927038 -0.662252 5.759405 0.635372 -0.258432 -2.897198 -4.967595 2.295904 8.798744 9.475014 -3.125056 -25.917628 0.000000 0.000000 0.000000 -21.737067 -9.574425 3.647461 -45.188696 -17.264313 0.505588 -4.590494 -27.861233 2.284654 0.000000 0.000000 0.000000 22.351507 -0.125967 -2.215910 51.883145 4.514276 -3.460794 0.953839 29.098745 1.262688 0.000000 0.000000 0.000000 
